<svg xmlns="http://www.w3.org/2000/svg" xmlns:xlink="http://www.w3.org/1999/xlink" width="1133.8" height="1133.8" viewBox="0 0 850.35 850.35"><clipPath id="a"><path d="M0 0h850.35v850.35H0z" fill-rule="evenodd"/></clipPath><g clip-path="url(#a)"><symbol id="b"><path d="M.339 0a.15.15 0 0 0-.058.01.238.238 0 0 0-.043.023.361.361 0 0 1-.036.023.074.074 0 0 1-.038.01A.05.05 0 0 1 .126.05.076.076 0 0 1 .107.005H0a.2.2 0 0 0 .044.126c.026.03.061.044.105.044a.159.159 0 0 0 .1-.033.628.628 0 0 1 .036-.023A.084.084 0 0 1 .323.11C.338.11.35.115.359.124c.01.01.016.025.02.047h.106A.22.22 0 0 0 .442.043.127.127 0 0 0 .339 0z"/></symbol><symbol id="c"><path d="m0 0 .332.825h.143L.143 0H0z"/></symbol><symbol id="d"><path d="M0 0v.14h.132V0H0z"/></symbol><symbol id="e"><path d="M.284 0a.29.29 0 0 0-.146.037A.28.28 0 0 0 0 .285a.272.272 0 0 0 .284.283.276.276 0 0 0 .194-.077.199.199 0 0 0 .053-.084L.416.357a.135.135 0 0 1-.051.066.136.136 0 0 1-.081.025.144.144 0 0 1-.077-.021.146.146 0 0 1-.052-.058.183.183 0 0 1-.019-.085c0-.032.006-.06.019-.085A.146.146 0 0 1 .207.141.144.144 0 0 1 .284.12a.137.137 0 0 1 .132.092L.531.16A.223.223 0 0 0 .479.077.265.265 0 0 0 .284 0z"/></symbol><symbol id="f"><path d="M.275 0a.27.27 0 0 0-.141.037.275.275 0 0 0-.098.103A.292.292 0 0 0 0 .284.277.277 0 0 0 .134.53a.266.266 0 0 0 .25.013.186.186 0 0 0 .077-.068L.441.448v.321h.131V.012H.448v.105L.462.091A.185.185 0 0 0 .384.023.258.258 0 0 0 .275 0m.014.12a.144.144 0 0 1 .132.079c.013.025.02.053.02.085 0 .031-.007.06-.02.084a.142.142 0 0 1-.132.08A.145.145 0 0 1 .21.426.149.149 0 0 1 .155.368.177.177 0 0 1 .136.284c0-.032.006-.06.019-.085A.149.149 0 0 1 .289.12z"/></symbol><symbol id="g"><path d="M0 0v.544h.123V.423l-.01.018c.013.04.032.069.059.085A.19.19 0 0 0 .27.55h.032V.434H.255a.12.12 0 0 1-.09-.035.13.13 0 0 1-.034-.096V0H0z"/></symbol><symbol id="h"><path d="M.187 0 0 .544h.138L.275.131.227.132l.146.412h.116L.634.132.586.131l.137.413h.138L.674 0H.557L.409.431h.044L.303 0H.187z"/></symbol><symbol id="i"><path d="M0 0v.544h.123V.437l-.01.019A.142.142 0 0 0 .175.53c.03.017.063.026.102.026.04 0 .075-.009.106-.026A.183.183 0 0 0 .456.457.214.214 0 0 0 .482.35V0H.351v.319a.129.129 0 0 1-.014.062.098.098 0 0 1-.039.04.105.105 0 0 1-.057.015.109.109 0 0 1-.096-.055.129.129 0 0 1-.014-.062V0H0z"/></symbol><use xlink:href="#b" transform="matrix(165.95 0 0 -165.95 51.804 421.52)"/><use xlink:href="#c" transform="matrix(165.95 0 0 -165.95 149.405 472.964)"/><use xlink:href="#d" transform="matrix(165.95 0 0 -165.95 251.162 453.05)"/><use xlink:href="#e" transform="matrix(165.95 0 0 -165.95 299.972 455.041)"/><use xlink:href="#f" transform="matrix(165.95 0 0 -165.95 400.922 455.041)"/><use xlink:href="#g" transform="matrix(165.95 0 0 -165.95 516.123 453.05)"/><use xlink:href="#h" transform="matrix(165.95 0 0 -165.95 569.925 453.05)"/><use xlink:href="#i" transform="matrix(165.95 0 0 -165.95 724.823 453.05)"/></g><path fill="none" d="M.06.06h850.23v850.23H.06z"/></svg>